<svg width="170" height="155" viewBox="0 0 170 155" fill="none" xmlns="http://www.w3.org/2000/svg">
<g clip-path="url(#clip0_2028_3)">
<path d="M105.66 61.1699C97.2902 61.1699 88.7702 60.8299 80.8002 58.6099C72.9802 56.4399 65.8002 52.2299 59.4002 47.3599C55.2102 44.1899 51.4002 41.6599 45.9602 42.0399C40.6382 42.3279 35.549 44.3153 31.4402 47.7099C24.5202 53.7699 25.5602 64.9999 28.3302 72.8599C32.4902 84.7299 45.1502 92.9999 55.9102 98.3499C68.3402 104.56 82.0002 108.17 95.6902 110.24C107.69 112.07 123.11 113.39 133.51 105.56C143.06 98.3499 145.68 81.9099 143.34 70.8099C142.772 67.5308 141.026 64.572 138.43 62.49C131.72 57.58 121.71 60.8599 114.17 61.0199C111.37 61.0799 108.52 61.1499 105.66 61.1699Z" fill="#F2F2F2"/>
<path d="M85.5801 129.7C105.854 129.7 122.29 128.675 122.29 127.41C122.29 126.145 105.854 125.12 85.5801 125.12C65.3057 125.12 48.8701 126.145 48.8701 127.41C48.8701 128.675 65.3057 129.7 85.5801 129.7Z" fill="#F2F2F2"/>
<path d="M33.7798 39.12L46.7798 38.02C48.4009 37.878 50.0215 38.2973 51.3704 39.2075C52.7194 40.1177 53.7147 41.4636 54.1898 43.02L66.6498 84.72L64.2098 89.09C63.5831 90.216 63.2737 91.4909 63.3146 92.7789C63.3555 94.0669 63.7453 95.3196 64.4422 96.4035C65.1391 97.4874 66.1172 98.3619 67.272 98.9336C68.4269 99.5053 69.7153 99.7529 70.9998 99.65L120.9 95.41" stroke="#BABABA" stroke-linecap="round" stroke-linejoin="round"/>
<path d="M56.0498 49.35L114.05 44.43C114.621 44.381 115.196 44.4613 115.732 44.6649C116.268 44.8686 116.752 45.1903 117.147 45.6062C117.541 46.0221 117.837 46.5216 118.013 47.0675C118.188 47.6135 118.238 48.1919 118.16 48.76L114.23 77.13C114.11 77.9811 113.708 78.7674 113.088 79.3624C112.468 79.9573 111.665 80.3263 110.81 80.41L66.6498 84.72L56.0498 49.35Z" fill="white" stroke="#BABABA" stroke-linecap="round" stroke-linejoin="round"/>
<path d="M76.5499 109.21C79.1511 109.21 81.2598 107.101 81.2598 104.5C81.2598 101.899 79.1511 99.79 76.5499 99.79C73.9486 99.79 71.8398 101.899 71.8398 104.5C71.8398 107.101 73.9486 109.21 76.5499 109.21Z" fill="white" stroke="#BABABA" stroke-linecap="round" stroke-linejoin="round"/>
<path d="M109.35 106.43C111.951 106.43 114.06 104.321 114.06 101.72C114.06 99.1187 111.951 97.01 109.35 97.01C106.749 97.01 104.64 99.1187 104.64 101.72C104.64 104.321 106.749 106.43 109.35 106.43Z" fill="white" stroke="#BABABA" stroke-linecap="round" stroke-linejoin="round"/>
<path d="M44.0746 36.8939L31.8186 37.9339C30.7565 38.024 29.9686 38.958 30.0587 40.0201C30.1488 41.0822 31.0829 41.8702 32.1449 41.78L44.4009 40.7401C45.463 40.65 46.2509 39.7159 46.1608 38.6538C46.0707 37.5918 45.1366 36.8038 44.0746 36.8939Z" fill="#D2D2D2"/>
<path d="M80.4702 71.26C80.7094 69.4349 81.5653 67.7464 82.8959 66.4746C84.2265 65.2029 85.9519 64.4242 87.7859 64.2677C89.62 64.1113 91.4523 64.5865 92.9791 65.6146C94.5059 66.6427 95.6354 68.1618 96.1802 69.92" stroke="#BABABA" stroke-linecap="round" stroke-linejoin="round"/>
<path d="M96.3099 60.47C96.9285 60.47 97.4299 59.9685 97.4299 59.35C97.4299 58.7314 96.9285 58.23 96.3099 58.23C95.6914 58.23 95.1899 58.7314 95.1899 59.35C95.1899 59.9685 95.6914 60.47 96.3099 60.47Z" fill="#BABABA"/>
<path d="M78.5599 61.97C79.1785 61.97 79.6799 61.4685 79.6799 60.85C79.6799 60.2314 79.1785 59.73 78.5599 59.73C77.9414 59.73 77.4399 60.2314 77.4399 60.85C77.4399 61.4685 77.9414 61.97 78.5599 61.97Z" fill="#BABABA"/>
<path d="M47.0098 103.11V107.42" stroke="#BABABA" stroke-linecap="round" stroke-linejoin="round"/>
<path d="M44.8599 105.26H49.1599" stroke="#BABABA" stroke-linecap="round" stroke-linejoin="round"/>
<path d="M115.72 22.99V27.29" stroke="#BABABA" stroke-linecap="round" stroke-linejoin="round"/>
<path d="M113.57 25.14H117.87" stroke="#BABABA" stroke-linecap="round" stroke-linejoin="round"/>
<path d="M64.8101 35.84V40.14" stroke="#BABABA" stroke-linecap="round" stroke-linejoin="round"/>
<path d="M62.6499 37.99H66.9599" stroke="#BABABA" stroke-linecap="round" stroke-linejoin="round"/>
<path d="M126.45 51.65C127.014 51.65 127.47 51.1933 127.47 50.63C127.47 50.0667 127.014 49.61 126.45 49.61C125.887 49.61 125.43 50.0667 125.43 50.63C125.43 51.1933 125.887 51.65 126.45 51.65Z" fill="white" stroke="#BABABA" stroke-linecap="round" stroke-linejoin="round"/>
<path d="M88.3301 42.48C88.8713 42.48 89.3101 42.0413 89.3101 41.5C89.3101 40.9588 88.8713 40.52 88.3301 40.52C87.7889 40.52 87.3501 40.9588 87.3501 41.5C87.3501 42.0413 87.7889 42.48 88.3301 42.48Z" fill="#CFCFCF"/>
<path d="M94.9102 113.6C95.4514 113.6 95.8902 113.161 95.8902 112.62C95.8902 112.079 95.4514 111.64 94.9102 111.64C94.3689 111.64 93.9302 112.079 93.9302 112.62C93.9302 113.161 94.3689 113.6 94.9102 113.6Z" fill="#CFCFCF"/>
</g>
<defs>
<clipPath id="clip0_2028_3">
<rect width="170" height="155" fill="white"/>
</clipPath>
</defs>
</svg>
